<svg width="100" height="24" viewBox="0 0 100 24" fill="none" xmlns="http://www.w3.org/2000/svg">
<path d="M22.0402 21H25.2322L26.2402 15.48H28.2322C31.1842 15.48 32.7922 14.616 33.6322 12.912C34.1362 11.928 34.4962 10.344 34.4962 9.024C34.4962 6.6 33.0802 5.016 29.7442 5.016H24.9442L22.0402 21ZM29.1922 7.68C30.6322 7.68 31.2562 8.208 31.2562 9.336C31.2562 9.936 31.0642 11.04 30.7762 11.616C30.3682 12.408 29.5762 12.816 28.2562 12.816H26.7202L27.6802 7.68H29.1922ZM34.7747 21H37.9907L40.8947 5.016H37.6787L34.7747 21ZM48.9771 4.68C46.4811 4.68 44.7051 5.712 43.6731 7.8C42.5691 9.984 41.8491 14.496 41.8491 16.536C41.8491 19.872 43.9131 21.36 47.1771 21.36C49.6731 21.36 51.1371 20.376 52.0011 18.672C52.4571 17.808 52.6971 16.728 52.8891 15.576L49.9611 15.24C49.7691 16.128 49.6011 16.848 49.3371 17.328C48.8811 18.216 48.1851 18.576 47.2011 18.576C45.8331 18.576 45.0171 17.856 45.0171 16.344C45.0171 14.52 45.7851 10.464 46.4331 9.096C46.9371 8.016 47.7051 7.464 48.8571 7.464C50.1291 7.464 50.9211 8.064 50.9211 9.312C50.9211 9.792 50.8491 10.392 50.7531 10.896L53.7051 10.752C53.8731 10.008 53.9211 9.288 53.9211 8.784C53.9211 6.192 51.9531 4.68 48.9771 4.68ZM65.7764 21L63.0404 12.072L68.5604 5.016H64.9604L59.1524 12.624L60.5444 5.016H57.4004L54.4964 21H57.6404L58.4324 16.56L60.4004 14.16C61.0004 16.2 62.3924 21 62.3924 21H65.7764ZM68.5447 14.208C68.3287 15.48 68.1847 16.344 68.1847 17.112C68.1847 18.576 68.6647 19.632 69.6247 20.304C70.5607 21 71.7607 21.336 73.2007 21.336C75.5767 21.336 77.3047 20.424 78.2407 18.6C78.7207 17.64 78.9367 16.512 79.3207 14.472L81.0247 5.016H77.9047L76.2247 14.4C75.9607 15.864 75.7447 16.752 75.4567 17.328C75.0727 18.096 74.3527 18.528 73.4167 18.528C72.2887 18.528 71.4007 18 71.4007 16.728C71.4007 16.248 71.5207 15.456 71.6887 14.424L73.3687 5.016H70.2007L68.5447 14.208ZM81.1574 21H84.3494L85.3574 15.48H87.3494C90.3014 15.48 91.9094 14.616 92.7494 12.912C93.2534 11.928 93.6134 10.344 93.6134 9.024C93.6134 6.6 92.1974 5.016 88.8614 5.016H84.0614L81.1574 21ZM88.3094 7.68C89.7494 7.68 90.3734 8.208 90.3734 9.336C90.3734 9.936 90.1814 11.04 89.8934 11.616C89.4854 12.408 88.6934 12.816 87.3734 12.816H85.8374L86.7974 7.68H88.3094Z" fill="white"/>
<path fill-rule="evenodd" clip-rule="evenodd" d="M11.7547 3L11.2832 9.96H17.4L8.64531 21L9.11681 14.04H3L11.7547 3Z" fill="white"/>
</svg>
